<svg width="81" height="87" viewBox="0 0 81 87" fill="none" xmlns="http://www.w3.org/2000/svg">
<g transform="translate(-289 -348)">
  <path d="M345.898 386.576L331.364 401.223H349.144C351.259 401.223 352.955 402.92 352.955 405.036V405.078C352.955 408.556 352.746 415.262 352.746 415.262C352.746 415.262 350.463 419.41 332.809 419.41C316.056 419.41 307.68 405.246 307.68 391.207C307.68 376.455 317.836 363.108 334.61 363.108C351.384 363.108 355.803 371.259 355.803 371.259L367.949 358.54C367.949 358.54 358.023 348 334.924 348C308.769 348 289 366.188 289 391.207C289 416.225 306.654 435 332.809 435C358.965 435 369.917 427.247 369.917 427.247V386.597H345.898V386.576Z" fill="black"/>
</g>
</svg>
